<svg id="google-logo" viewBox="0 0 11 11" fill="none" xmlns="http://www.w3.org/2000/svg">
    <path fill-rule="evenodd" clip-rule="evenodd"
          d="M10.0737 5.82572C10.0737 5.48983 10.0435 5.16687 9.98757 4.85682H5.52632V6.68912H8.0756C7.96579 7.28122 7.63206 7.7829 7.13039 8.11878V9.3073H8.66125C9.55694 8.48266 10.0737 7.2683 10.0737 5.82572Z"
          fill="#4285F4"/>
    <path fill-rule="evenodd" clip-rule="evenodd"
          d="M5.52632 10.4549C6.80527 10.4549 7.87752 10.0307 8.66125 9.3073L7.13039 8.11878C6.70622 8.40299 6.16364 8.57094 5.52632 8.57094C4.29259 8.57094 3.24833 7.73768 2.87584 6.61806H1.2933V7.84534C2.07273 9.39342 3.67464 10.4549 5.52632 10.4549Z"
          fill="#34A853"/>
    <path fill-rule="evenodd" clip-rule="evenodd"
          d="M2.87584 6.61807C2.7811 6.33386 2.72727 6.03027 2.72727 5.71807C2.72727 5.40587 2.7811 5.10228 2.87584 4.81807V3.59079H1.2933C0.972489 4.23027 0.789474 4.95371 0.789474 5.71807C0.789474 6.48242 0.972489 7.20587 1.2933 7.84534L2.87584 6.61807Z"
          fill="#FBBC05"/>
    <path fill-rule="evenodd" clip-rule="evenodd"
          d="M5.52632 2.86519C6.22177 2.86519 6.84617 3.10419 7.33708 3.57356L8.6957 2.21495C7.87536 1.4506 6.80311 0.98122 5.52632 0.98122C3.67464 0.98122 2.07273 2.0427 1.2933 3.59079L2.87584 4.81806C3.24833 3.69844 4.29259 2.86519 5.52632 2.86519Z"
          fill="#EA4335"/>
</svg>
