<svg id="uk-flag-icon" viewBox="0 0 966 600" fill="none" xmlns="http://www.w3.org/2000/svg">
    <g clip-path="url(#clip0)">
        <path d="M0 0V600H966V0H0Z" fill="#012169"/>
        <path d="M0 0L966 600L0 0ZM966 0L0 600Z" fill="black"/>
        <path d="M966 0L0 600M0 0L966 600L0 0Z" stroke="white" stroke-width="120"/>
        <path d="M0 0L966 600L0 0ZM966 0L0 600Z" fill="black"/>
        <path d="M966 0L0 600M0 0L966 600L0 0Z" stroke="#C8102E" stroke-width="80"/>
        <path d="M483 0V600V0ZM0 300H966Z" fill="black"/>
        <path d="M0 300H966M483 0V600V0Z" stroke="white" stroke-width="200"/>
        <path d="M483 0V600V0ZM0 300H966Z" fill="black"/>
        <path d="M0 300H966M483 0V600V0Z" stroke="#C8102E" stroke-width="120"/>
    </g>
    <defs>
        <clipPath id="clip0">
            <rect width="966" height="600" fill="white"/>
        </clipPath>
    </defs>
</svg>
